<svg xmlns="http://www.w3.org/2000/svg" viewBox="0 0 114.57 141.19"><defs><style>.cls-1,.cls-4{fill:none;}.cls-1,.cls-2,.cls-4,.cls-5{stroke:#000;stroke-linecap:round;stroke-linejoin:round;}.cls-1{stroke-width:2px;}.cls-2,.cls-3,.cls-5{fill:#000;}.cls-5{stroke-width:1.54px;}</style></defs><title>Billing</title><g id="DASHBOARD_V1"><polygon class="cls-1" points="113.57 1 113.57 122.97 92.69 122.97 92.69 140.19 1 140.19 1 1 113.57 1"/><line class="cls-2" x1="92.69" y1="140.19" x2="113.57" y2="122.97"/><path class="cls-3" d="M29.28,24.7V21.17H35.4V24.7c5.3,1.09,8,5.17,8,11.63v1.5H36.35v-2c0-3.4-1.36-4.69-3.74-4.69s-3.74,1.29-3.74,4.69c0,9.79,14.62,10.27,14.62,23.87,0,6.46-2.79,10.61-8.09,11.69v3.47H29.28V71.41c-5.37-1.08-8.09-5.23-8.09-11.69V56.46h7.07v3.73c0,3.4,1.5,4.63,3.88,4.63S36,63.59,36,60.19c0-9.79-14.62-10.26-14.62-23.86C21.39,29.94,24.05,25.86,29.28,24.7Z"/><rect class="cls-4" x="7.4" y="7.64" width="49.89" height="80.77"/><rect class="cls-4" x="7.4" y="98.97" width="98.94" height="11.33"/><polygon class="cls-4" points="106.34 120.31 106.34 122.97 92.69 122.97 92.69 131.64 7.4 131.64 7.4 120.31 106.34 120.31"/><rect class="cls-5" x="62.68" y="7.64" width="43.66" height="20.38"/><rect class="cls-3" x="59.83" y="86.71" width="50" height="1.97"/><rect class="cls-5" x="62.68" y="62" width="7.7" height="25.29"/><rect class="cls-5" x="74.88" y="52.19" width="7.7" height="35.1"/><rect class="cls-5" x="87.08" y="58.11" width="7.7" height="29.18"/><rect class="cls-5" x="99.28" y="38.02" width="7.7" height="49.28"/></g></svg>
