<svg xmlns="http://www.w3.org/2000/svg" viewBox="0 0 143.47 114.96"><defs><style>.cls-1{fill:none;}.cls-1,.cls-3{stroke:#39b4d1;stroke-miterlimit:10;stroke-width:2px;}.cls-2,.cls-3{fill:#39b4d1;}</style></defs><title>Tori Gates</title><g id="DASHBOARD_V1"><polygon class="cls-1" points="136.36 26.04 136.36 33.53 113.4 33.53 115.56 97.6 102.49 97.6 104.49 33.53 40.84 33.53 41.86 97.6 30.09 97.6 31.93 33.53 9.32 33.53 9.32 26.04 31.93 26.04 31.93 19.73 40.84 19.73 40.84 26.04 68.46 26.04 68.46 17.95 76.15 17.95 76.15 26.04 104.49 26.04 104.49 19.73 113.4 19.73 113.4 26.04 136.36 26.04"/><path class="cls-1" d="M134,14.7s-44.61,3.14-62.26,3.14S8.2,15.73,8.2,15.73L7.34,6.48S53.71,10,71.74,10s64.39-3.48,64.39-3.48Z"/><path class="cls-2" d="M143.47,0s-43,3.15-71.73,3.15S0,0,0,0L5.22,6.3s36,3.16,66.52,3.16S138.25,6.3,138.25,6.3Z"/><rect class="cls-3" x="28.38" y="16.43" width="15.32" height="3.3" rx="1" ry="1"/><rect class="cls-3" x="101.29" y="16.6" width="15.32" height="3.3" rx="1" ry="1"/><rect class="cls-3" x="27.7" y="89.25" width="16.68" height="16.68" rx="1" ry="1"/><rect class="cls-3" x="100.6" y="89.25" width="16.68" height="16.68" rx="1" ry="1"/><rect class="cls-3" x="9.32" y="99.2" width="126.81" height="14.76"/></g></svg>
