<svg xmlns="http://www.w3.org/2000/svg" viewBox="0 0 118.43 118.2"><defs><style>.cls-1{fill:#fff;}</style></defs><title>Stroke</title><g id="DASHBOARD_V1"><path class="cls-1" d="M59.21,2.29A56.67,56.67,0,1,1,2.55,59,56.67,56.67,0,0,1,59.21,2.29M53.85,109.16v-6.51c-9.4-1.91-14.16-9.17-14.16-20.48V76.45H52.07V83c0,6,2.62,8.1,6.79,8.1S65.64,89,65.64,83C65.64,65.86,40,65,40,41.21,40,30,44.69,22.87,53.85,20.85V14.66H64.57v6.19c9.29,1.9,14.05,9,14.05,20.36v2.62H66.24V40.38c0-6-2.38-8.22-6.55-8.22s-6.55,2.26-6.55,8.22c0,17.14,25.6,18,25.6,41.79,0,11.31-4.88,18.57-14.17,20.48v6.51c26-2,45.4-23.67,45.4-50.2A50.43,50.43,0,1,0,9.12,59c0,26.3,19,47.88,44.73,50.2M59.21.38A58.58,58.58,0,1,0,117.8,59,58.65,58.65,0,0,0,59.21.38ZM51.94,107C28.47,103.84,11,83.55,11,59a48.52,48.52,0,0,1,97,0c0,24.89-17.73,45.2-41.57,48.08v-2.88c9.15-2.54,14.17-10.29,14.17-22,0-13.79-8-20.37-15.07-26.17-5.65-4.65-10.53-8.66-10.53-15.62,0-5.82,2.39-6.3,4.63-6.3s4.64.48,4.64,6.3v5.37H80.54V41.21c0-11.64-5-19.35-14.05-21.87v-6.6H51.94v6.62C43,22,38.13,29.69,38.13,41.21c0,13.79,8,20.37,15.06,26.17C58.84,72,63.72,76,63.72,83c0,5.13-1.94,6.18-4.86,6.18-4,0-4.87-2.47-4.87-6.18V74.54H37.77v7.63c0,11.73,5,19.47,14.17,22V107Z"/></g></svg>