<svg xmlns="http://www.w3.org/2000/svg" viewBox="0 0 118.43 118.2"><defs><style>.cls-1{fill:#fff;}</style></defs><title>Fill</title><g id="DASHBOARD_V1"><path class="cls-1" d="M59.21,0A59.09,59.09,0,1,0,118.3,59.11,59.09,59.09,0,0,0,59.21,0Zm4.45,111.52,1.14-.09v-6.78c9.68-2,14.77-9.57,14.77-21.36,0-24.83-26.69-25.7-26.69-43.58,0-6.21,2.48-8.57,6.83-8.57s6.83,2.36,6.83,8.57v3.6H79.45V40.6c0-11.8-5-19.25-14.65-21.23V12.91H53.62v6.46c-9.56,2.11-14.4,9.56-14.4,21.23,0,24.83,26.69,25.7,26.69,43.58,0,6.21-2.73,8.44-7.07,8.44s-7.08-2.23-7.08-8.44V77.35H38.85v6c0,11.79,5,19.37,14.77,21.36v6.78l1.14,0a52.52,52.52,0,1,1,8.9.07Z"/></g></svg>