<svg xmlns="http://www.w3.org/2000/svg" viewBox="0 0 175.93 159.51"><defs><style>.cls-1{fill:none;}.cls-1,.cls-3{stroke:#fff;stroke-miterlimit:10;stroke-width:2px;}.cls-2,.cls-3{fill:#fff;}</style></defs><title>Charts</title><g id="DASHBOARD_V1"><path class="cls-1" d="M43.38,25.81A21.19,21.19,0,1,1,22.19,4.63V25.81Z"/><path class="cls-2" d="M47.25,21.18H26.06V0A21.18,21.18,0,0,1,47.25,21.18Z"/><polyline class="cls-1" points="118.93 48.82 84.93 97.82 46.93 75.82 9.53 137.67"/><circle class="cls-3" cx="11.04" cy="134.82" r="7"/><circle class="cls-3" cx="47.25" cy="76.82" r="7"/><circle class="cls-3" cx="84.93" cy="97.82" r="7"/><line class="cls-1" x1="167.93" y1="24.82" x2="118.93" y2="48.82"/><circle class="cls-3" cx="118.93" cy="48.82" r="7"/><circle class="cls-3" cx="167.93" cy="24.82" r="7"/><polygon class="cls-1" points="96.72 136.78 96.72 156.23 82.24 156.23 82.24 136.62 96.72 136.78"/><polygon class="cls-1" points="120.16 115.63 120.16 156.23 105.68 156.23 105.68 115.84 120.16 115.63"/><polygon class="cls-1" points="143.21 93.98 143.21 156.23 128.73 156.23 128.73 93.99 143.21 93.98"/><polygon class="cls-2" points="165.31 73.36 165.31 156.23 150.83 156.23 150.83 73.12 165.31 73.36"/><rect class="cls-3" x="77.7" y="156.23" width="95.61" height="2.29"/></g></svg>