<svg xmlns="http://www.w3.org/2000/svg" viewBox="0 0 125.13 126.05"><defs><style>.cls-1{fill:none;stroke:#fff;stroke-linecap:round;stroke-linejoin:round;stroke-width:3px;}</style></defs><title>Gear</title><g id="DASHBOARD_V1"><path class="cls-1" d="M108.12,63a45,45,0,0,0-.69-7.92l16.2-9.35-15.57-27-16.2,9.35A45.66,45.66,0,0,0,78.14,20.2V1.5H47V20.2a45.66,45.66,0,0,0-13.72,7.92l-16.2-9.35L1.5,45.77l16.21,9.35a44,44,0,0,0,0,15.85L1.5,80.32l15.57,27,16.2-9.37a45.15,45.15,0,0,0,13.72,8v18.68H78.14V105.87a45.15,45.15,0,0,0,13.72-8l16.2,9.37,15.57-27L107.43,71A45.07,45.07,0,0,0,108.12,63ZM62.56,79.14A16.13,16.13,0,1,1,78.69,63,16.12,16.12,0,0,1,62.56,79.14Z"/></g></svg>