<svg xmlns="http://www.w3.org/2000/svg" viewBox="0 0 125.35 169.82"><defs><style>.cls-1,.cls-3,.cls-4{fill:none;stroke:#39b4d1;}.cls-1,.cls-4{stroke-linecap:round;stroke-linejoin:round;}.cls-1,.cls-3{stroke-width:2px;}.cls-2{fill:#39b4d1;}.cls-3{stroke-miterlimit:10;}.cls-4{stroke-width:4.82px;}</style></defs><title>Reports</title><g id="DASHBOARD_V1"><rect class="cls-1" x="1" y="18.29" width="123.35" height="150.53" rx="5.16" ry="5.16"/><path class="cls-2" d="M71.17,11.5a8.73,8.73,0,0,0,.39-2.61,8.89,8.89,0,1,0-17.77,0,9.06,9.06,0,0,0,.39,2.61H30.27V23H95.08V11.5ZM56.93,8.89a5.75,5.75,0,1,1,.63,2.61A5.74,5.74,0,0,1,56.93,8.89Z"/><polygon class="cls-3" points="89.77 139.26 89.77 155.64 16.94 155.64 16.94 31.48 108.41 31.48 108.41 139.26 89.77 139.26"/><line class="cls-3" x1="107.7" y1="139.62" x2="89.77" y2="155.64"/><polyline class="cls-4" points="46.26 103.52 59.91 112.04 79.09 81.35"/><rect class="cls-3" x="37.74" y="71.76" width="49.87" height="49.87" rx="10.96" ry="10.96"/></g></svg>
