<svg xmlns="http://www.w3.org/2000/svg" viewBox="0 0 90.84 89.62"><defs><style>.cls-1{fill:none;}.cls-1,.cls-3{stroke:#000;stroke-miterlimit:10;}.cls-2{fill:#000;}.cls-3{fill:#4a6491;}</style></defs><title>Clients copy</title><g id="DASHBOARD_V1"><path class="cls-1" d="M33.54,33a2.41,2.41,0,0,1-2.27-.81c-.59-.54-.51-3.89-.51-3.89-.82-1.64-.82-4.93,0-5.75s.82.82,1.64.82c0,0,.35.63.83,1.56V25S33.22,29.08,33.54,33Z"/><path class="cls-1" d="M62.7,28.3s.08,3.35-.51,3.89a2.46,2.46,0,0,1-2.64.74c.37-2.76.67-5.74.76-8.15.43-.85.75-1.41.75-1.41.82,0,.82-1.64,1.64-.82S63.53,26.66,62.7,28.3Z"/><path class="cls-1" d="M60.34,23.37q0,.66,0,1.41c-.09,2.41-.39,5.39-.76,8.15-.4,3-.88,5.73-1.27,7.29A6.75,6.75,0,0,1,56.71,43a11.37,11.37,0,0,1-5.41,3.36,32.17,32.17,0,0,1-10.68-.82c-2.47-.82-4.11-3.29-5.75-5.75-.7-1.06-1.11-3.9-1.33-6.81-.32-3.92-.32-8-.32-8v-.09L34,11.87s6.58-4.11,11.51-4.93,9.54.4,11.5,1.64C61.57,11.46,59.52,19.27,60.34,23.37Z"/><path class="cls-2" d="M63.63,20.91c.82-2.47,0-7.4-.82-9.86s-3.29-4.11-4.93-5.76S52.12.37,48.84.37s-3.29-.83-5.75,0-8.22,4.92-9.86,7.39a26.51,26.51,0,0,0-2.47,4.93c-.82,1.64,0,10.68,0,10.68l2.51,4.41s0-8.52.78-11c0-2.47-1.06-4.71,1.94-6.05s11.21-3,14.49-3,4.93,0,6.57.82,3.29,8.22,2.47,10.68a38.53,38.53,0,0,1,.56,8.52A68.19,68.19,0,0,0,63.63,20.91Z"/><rect class="cls-2" x="0.13" y="86.43" width="90.59" height="3.2"/><path class="cls-2" d="M1.33,77.21c1.2-2.4-.67-1.87,0-4.8a19.69,19.69,0,0,1,1.06-3.72c-.26-.67-.53-6,0-7.19s3.07-1.6,3.07-1.6c4-2.26,16.24-5.3,16.24-5.3a26.13,26.13,0,0,0,9.58-6A4.5,4.5,0,0,1,33.94,47a5.21,5.21,0,0,0-.59,2.69c0,2.11,2,7,3.5,10.35.81,1.88,1.43,3.61,1.43,3.61l2,6.7-.32.56,1,3.48c0,.09.06.18.08.26C41.93,77.2,43,80.75,44,84H0S.13,79.6,1.33,77.21Z"/><path class="cls-2" d="M90.8,80.67A14.17,14.17,0,0,0,90.14,84H47.93L50,77.65l.55-1.74c0-.1-.12-.39-.26-.8l3.56-9.83s.61-1.94,1.38-4.09c0,0,0,0,0,0A54.68,54.68,0,0,0,58,51.31c.43-3-.26-4.22-1-4.69l0-.28c1.41,0,5.1,4.77,5.77,5.17s8.91,5.06,12.64,6.37S84.8,63,85.74,63s1.73.26,2.53,3.84-.94,4.42-.53,4.81.92,4.93.92,4.93S91.2,80,90.8,80.67Z"/><path class="cls-2" d="M45.05,65.69A5.78,5.78,0,0,1,45.9,67a71.49,71.49,0,0,1,3.46,8.93l-.45,1.42L47,83H44.55c-1.08-3.68-2.21-7.21-2.67-8.64a2.08,2.08,0,0,0-.08-.26L40.91,71a31.12,31.12,0,0,0,2.27-4.65c.08-.3.16-.61,1.52-.67h.35m.19-1h-.59c-1.3,0-2.15.33-2.44,1.4a36.23,36.23,0,0,1-2.38,4.79l1,3.48c0,.09.06.18.08.26.83,2.57,1.94,6.12,2.88,9.36h4l2.11-6.34.55-1.74a73.94,73.94,0,0,0-3.63-9.39c-.58-1.09-1.12-1.83-1.54-1.83Z"/><path class="cls-2" d="M47.06,58.88l.34.07a5.21,5.21,0,0,1,1.75,1.46c.33.37.68.8,1,1.28A35,35,0,0,1,47,65c-.54-.79-1.09-1.26-1.79-1.26h-.62a4.64,4.64,0,0,0-2.13.48c-.33-.6-.81-1.41-1.51-2.51.25-.27.53-.57.82-.86,1.81-1.79,2.67-1.93,2.89-1.93h2.38m.08-1H44.68c-1,0-2.39,1-3.59,2.22-.49.49-1,1-1.37,1.48,1,1.51,2.49,4,2.49,4.52.29-1.07,1.14-1.35,2.44-1.4h.59c.42,0,1,.74,1.54,1.83a36.61,36.61,0,0,0,4.66-4.81,21.69,21.69,0,0,0-1.55-2A6.07,6.07,0,0,0,47.66,58l-.4-.08a.25.25,0,0,0-.12,0Z"/><path class="cls-1" d="M44.68,57.88c-1,0-2.39,1-3.59,2.22-.49.49-1,1-1.37,1.48-.95,1.12-1.62,2.05-1.62,2.05S37.48,61.9,36.67,60c-1.45-3.39-3.5-8.24-3.5-10.35s.7-3.24,1.65-3.74V48C34.82,49.67,44.68,57.88,44.68,57.88Z"/><path class="cls-1" d="M57.82,51.31a54.68,54.68,0,0,1-2.72,9.85s0,0,0,0c-.77,2.15-1.38,4.09-1.38,4.09s-1-1.76-2.27-3.57a21.69,21.69,0,0,0-1.55-2A6.07,6.07,0,0,0,47.66,58a1.19,1.19,0,0,0-.4-.08.25.25,0,0,0-.12,0S57.82,52.13,57,48c-.09-.46-.16-.93-.21-1.4C57.56,47.09,58.25,48.3,57.82,51.31Z"/><path class="cls-1" d="M47.14,57.88H44.68S34.82,49.67,34.82,48V39.81c1.64,2.46,3.28,4.93,5.75,5.75a32.17,32.17,0,0,0,10.68.82A11.37,11.37,0,0,0,56.66,43a25,25,0,0,0,.1,3.32l0,.28c.05.47.12.94.21,1.4C57.82,52.13,47.14,57.88,47.14,57.88Z"/><line class="cls-3" x1="53.71" y1="65.28" x2="49.86" y2="75.91"/><line class="cls-1" x1="38.1" y1="63.63" x2="40.35" y2="70.98"/></g></svg>
