<svg xmlns="http://www.w3.org/2000/svg" viewBox="0 0 67.45 162.48"><defs><style>.cls-1,.cls-3,.cls-5{fill:none;}.cls-1,.cls-2,.cls-3,.cls-4,.cls-5,.cls-6{stroke:#fff;stroke-miterlimit:10;}.cls-1,.cls-4{stroke-width:0.87px;}.cls-2,.cls-4,.cls-6,.cls-7{fill:#fff;}.cls-2,.cls-3{stroke-width:2px;}.cls-5{stroke-width:1.74px;}.cls-6{stroke-width:0.75px;}</style></defs><title>Rocketman</title><g id="DASHBOARD_V1"><path class="cls-1" d="M57.52,75.6c0,1,0,1.94,0,2.9s0,1.92-.06,2.88-.07,1.9-.12,2.84-.09,1.78-.15,2.66a1.88,1.88,0,0,1,0,.34c0,.81-.11,1.62-.18,2.42s-.11,1.46-.18,2.18c0,.43-.08.86-.12,1.29q-.54,5.37-1.39,10.42c-.11.65-.22,1.3-.34,2,0,.14,0,.27-.07.4-.29,1.58-.61,3.13-1,4.65a.36.36,0,0,1,0,.11c-.18.8-.36,1.59-.54,2.36a.59.59,0,0,0-.05.23c-.19.72-.36,1.41-.54,2.11s-.41,1.53-.62,2.28l-.36,1.22c-.11.41-.24.81-.36,1.21s-.25.8-.37,1.19-.25.77-.39,1.16-.26.78-.39,1.16c-.23.7-.49,1.39-.74,2.07-.33.87-.66,1.72-1,2.56-.41,1-.83,2-1.26,2.89-.61,1.34-1.25,2.64-1.9,3.87q-4.77.12-9.72.12l1.9-17.75,1.07-10v0l.11-1a5,5,0,0,0-10,0l.1,1v0l1.07,10,1.91,17.75q-5,0-9.72-.12a65.35,65.35,0,0,1-3-6.39c-.25-.58-.49-1.18-.72-1.79s-.53-1.37-.78-2.07l-.09-.24c-.37-1-.74-2.12-1.09-3.22-.16-.52-.33-1-.48-1.57s-.4-1.36-.6-2h0c-.4-1.43-.78-2.89-1.15-4.38-.1-.44-.2-.9-.31-1.34-.18-.79-.36-1.58-.52-2.38-.29-1.32-.55-2.65-.79-4-.1-.5-.2-1-.27-1.53s-.14-.79-.21-1.2c-.12-.72-.23-1.43-.33-2.16a.15.15,0,0,1,0-.07c-.13-.83-.25-1.67-.35-2.52a1.58,1.58,0,0,1-.05-.38c-.22-1.67-.41-3.37-.58-5.09-.09-.84-.16-1.69-.23-2.54,0-.12,0-.25,0-.38-.07-.8-.13-1.61-.18-2.42,0-.11,0-.22,0-.34-.06-.88-.11-1.76-.15-2.66s-.09-1.89-.11-2.84S10,79.47,10,78.5s0-1.92,0-2.9C10,40.54,20.05,11,33.75,2.41,47.43,11.06,57.52,40.55,57.52,75.6Z"/><path class="cls-2" d="M46.63,18.72c-4.27-.13-8.65-.2-13.1-.2s-8.53.06-12.66.19c3.65-7.59,8-13.25,12.88-16.3C38.59,5.47,43,11.14,46.63,18.72Z"/><path class="cls-3" d="M57.52,75.6c0,1,0,1.94,0,2.9s0,1.92-.07,2.88-.06,1.9-.11,2.84-.09,1.78-.15,2.66c0,.12,0,.23,0,.34,0,.51-.07,1-.11,1.51,0,.31,0,.61-.07.91-.05.73-.11,1.46-.18,2.18l-.12,1.28c-.36,3.58-.82,7.06-1.39,10.42-.11.66-.22,1.31-.34,2,0,.14,0,.27-.08.41-.28,1.58-.6,3.13-.94,4.65,0,0,0,.08,0,.11-.18.79-.36,1.59-.54,2.36a.86.86,0,0,0-.06.23c-.18.71-.35,1.41-.54,2.11s-.41,1.53-.61,2.28l-.36,1.22c-.11.41-.24.81-.36,1.21s-.25.79-.37,1.19l-.39,1.16c-.13.4-.26.78-.39,1.16-.24.7-.49,1.39-.74,2.07-.33.87-.66,1.72-1,2.56-.41,1-.83,1.95-1.26,2.89-.62,1.34-1.25,2.64-1.91,3.87-3.17.08-6.4.12-9.71.12l1.9-17.75,1.07-10v0l.11-1a5,5,0,0,0-10,0l.1,1v0l1.07,10,1.91,17.75c-3.3,0-6.55,0-9.73-.12,0,0-.06-.11-.08-.17a64.2,64.2,0,0,1-2.91-6.22c-.26-.59-.49-1.19-.73-1.79s-.52-1.37-.77-2.07a2.34,2.34,0,0,1-.09-.24c-.37-1-.74-2.13-1.09-3.22-.16-.52-.33-1-.49-1.57s-.41-1.36-.6-2c-.4-1.43-.78-2.89-1.15-4.38-.1-.45-.21-.9-.31-1.34-.18-.79-.37-1.58-.52-2.38-.29-1.32-.55-2.65-.8-4-.09-.51-.19-1-.27-1.53s-.14-.8-.2-1.21c-.1-.6-.2-1.2-.28-1.81l-.06-.35v-.06c-.13-.83-.25-1.67-.35-2.52a2.5,2.5,0,0,1-.06-.38c-.21-1.67-.41-3.37-.57-5.1-.09-.83-.16-1.68-.23-2.53,0-.12,0-.25,0-.38,0-.31,0-.63-.07-1,0-.49-.08-1-.11-1.47a1.88,1.88,0,0,1,0-.34c-.06-.88-.11-1.77-.15-2.66s-.09-1.89-.12-2.84S10,79.47,10,78.5s0-1.92,0-2.9c0-.69,0-1.38,0-2.06a169.6,169.6,0,0,1,1.51-21.05c1.79-13.21,5.07-24.84,9.39-33.79q6.19-.18,12.66-.18,6.67,0,13.09.2c4.3,8.94,7.59,20.56,9.38,33.75a173.21,173.21,0,0,1,1.51,21C57.52,74.19,57.52,74.9,57.52,75.6Z"/><path class="cls-4" d="M31.83,135.07q-5,0-9.72-.12a65.35,65.35,0,0,1-3-6.39c-.25-.59-.49-1.19-.72-1.79s-.53-1.37-.78-2.07l-.09-.24c-.37-1-.74-2.12-1.09-3.22-.16-.52-.33-1-.48-1.57s-.41-1.36-.61-2h0c4.68-.17,9.55-.27,14.57-.3Z"/><path class="cls-4" d="M52.14,117.62l-.36,1.22c-.11.41-.24.81-.36,1.21s-.25.8-.37,1.19-.25.78-.39,1.16-.26.78-.39,1.16c-.24.7-.49,1.39-.74,2.07-.33.87-.66,1.72-1,2.56-.41,1-.83,1.95-1.26,2.89-.61,1.34-1.25,2.64-1.9,3.87q-4.77.12-9.72.12l1.9-17.75C42.58,117.35,47.46,117.45,52.14,117.62Z"/><path class="cls-3" d="M22,134.79a4.75,4.75,0,0,1-1.27.17c-12-.11-13.68,14.8-13.68,14.8S-.09,121.93,2.3,111.29c.91-4.08,4.93-7.58,9.51-10.32.09.61.18,1.21.29,1.81.06.41.12.81.2,1.2s.17,1,.27,1.54c.24,1.36.51,2.69.79,4,.16.81.34,1.6.53,2.38.1.45.2.9.31,1.34.37,1.49.75,3,1.15,4.39.19.68.39,1.37.6,2s.32,1.06.49,1.57c.35,1.1.71,2.18,1.09,3.23,0,.07,0,.15.08.24.26.7.51,1.38.78,2.06s.47,1.21.72,1.8C20,130.78,21,132.86,22,134.79Z"/><path class="cls-3" d="M45.55,134.79a4.81,4.81,0,0,0,1.27.17c12-.11,13.68,14.8,13.68,14.8s7.16-27.83,4.77-38.47c-.91-4.08-4.93-7.58-9.51-10.32-.09.61-.18,1.21-.29,1.81-.06.41-.12.81-.2,1.2s-.17,1-.27,1.54c-.24,1.36-.5,2.69-.79,4-.16.81-.34,1.6-.52,2.38-.11.45-.21.9-.32,1.34-.36,1.49-.75,3-1.15,4.39-.19.68-.39,1.37-.6,2s-.32,1.06-.49,1.57c-.35,1.1-.71,2.18-1.09,3.23,0,.07,0,.15-.08.24-.26.7-.51,1.38-.78,2.06s-.47,1.21-.72,1.8C47.55,130.78,46.58,132.86,45.55,134.79Z"/><path class="cls-5" d="M45.55,45.74a11.67,11.67,0,0,1-.41,3.08,11.8,11.8,0,0,1-22.79,0,11.67,11.67,0,0,1-.41-3.08,11.81,11.81,0,0,1,23.61,0Z"/><path class="cls-3" d="M45.14,48.82a11.8,11.8,0,0,1-22.79,0,11.8,11.8,0,0,1,22.79,0Z"/><path class="cls-3" d="M38.75,106.28l-.11,1v0l-1.07,10-1.9,17.75L33.75,153l-1.92-17.93-1.91-17.75-1.07-10v0l-.1-1a5,5,0,0,1,10,0Z"/><path class="cls-6" d="M28.74,106.28l.1,1A4.74,4.74,0,0,1,28.74,106.28Z"/><path class="cls-7" d="M34.41,75.2c7.11,0,14.2.08,21.12.26v.15c0,1,0,1.91,0,2.88s0,2-.07,2.85-.06,1.75-.11,2.82c0,.87-.09,1.79-.15,2.59v0c-6.6.16-13.58.25-20.76.25-7.48,0-14.9-.1-22.09-.29-.06-.87-.11-1.74-.15-2.63s-.09-1.86-.12-2.8S12,79.45,12,78.46s0-1.89,0-2.85v-.12c7.19-.19,14.73-.29,22.44-.29m0-2c-8.5,0-16.71.12-24.43.35,0,.68,0,1.37,0,2.06,0,1,0,1.94,0,2.9s0,1.92.06,2.88.07,1.9.12,2.84.09,1.78.15,2.66a1.88,1.88,0,0,0,0,.34c0,.49.06,1,.11,1.47,7.58.22,15.62.34,23.95.34,7.85,0,15.44-.1,22.63-.3,0-.5.08-1,.11-1.51,0-.11,0-.22,0-.34.06-.88.12-1.77.15-2.66s.09-1.89.11-2.84.06-1.91.07-2.88,0-1.92,0-2.9c0-.7,0-1.41,0-2.1-7.33-.2-15.09-.31-23.11-.31Z"/><circle class="cls-7" cx="17.59" cy="81.12" r="2.24"/><circle class="cls-7" cx="49.06" cy="81.12" r="2.24"/><circle class="cls-7" cx="33.75" cy="81.12" r="2.24"/></g></svg>