<svg xmlns="http://www.w3.org/2000/svg" viewBox="0 0 147 147"><defs><style>.cls-1{fill:#39b4d1;}.cls-2,.cls-3{fill:none;stroke:#39b4d1;stroke-miterlimit:10;}.cls-2{stroke-width:2px;}</style></defs><title>TAP Iconsv2</title><g id="DASHBOARD_V1"><path class="cls-1" d="M73.5,7.5a66,66,0,1,1-66,66,66.08,66.08,0,0,1,66-66m0-6a72,72,0,1,0,72,72,72,72,0,0,0-72-72Z"/><path class="cls-1" d="M110.58,36.67,63.49,63.24,36.92,110.33,84,83.76ZM68.32,78.93a7.68,7.68,0,1,1,10.86,0A7.68,7.68,0,0,1,68.32,78.93Z"/><circle class="cls-1" cx="74" cy="16" r="3"/><circle class="cls-1" cx="74" cy="131" r="3"/><circle class="cls-1" cx="131.5" cy="73.5" r="3"/><circle class="cls-1" cx="16.5" cy="73.5" r="3"/><line class="cls-2" x1="32" y1="32" x2="39.5" y2="39.5"/><line class="cls-2" x1="115" y1="115" x2="107.5" y2="107.5"/><path class="cls-3" d="M117.38,29.87,61.6,61.35,30.12,117.13,85.9,85.65ZM67.32,79.93a9.09,9.09,0,1,1,12.86,0A9.1,9.1,0,0,1,67.32,79.93Z"/></g></svg>
