<svg xmlns="http://www.w3.org/2000/svg" viewBox="0 0 176.89 110.1"><defs><style>.cls-1,.cls-3,.cls-4,.cls-5,.cls-6,.cls-7{fill:none;}.cls-1,.cls-3,.cls-4,.cls-5,.cls-6,.cls-7,.cls-8{stroke:#fff;}.cls-1,.cls-6,.cls-7,.cls-8{stroke-miterlimit:10;}.cls-2{fill:#fff;}.cls-3,.cls-4,.cls-5{stroke-linecap:round;stroke-linejoin:round;stroke-width:2px;}.cls-4{stroke-dasharray:1 5.02;}.cls-5{stroke-dasharray:0.51 6.08;}.cls-6{stroke-width:0.66px;}.cls-7{stroke-width:0.32px;}.cls-8{fill:#4a6491;}</style></defs><title>Clients</title><g id="DASHBOARD_V1"><path class="cls-1" d="M119.6,53.48a2.41,2.41,0,0,1-2.27-.81c-.59-.54-.51-3.89-.51-3.89-.82-1.64-.82-4.93,0-5.75s.82.82,1.64.82c0,0,.35.63.83,1.56v.09S119.28,49.56,119.6,53.48Z"/><path class="cls-1" d="M148.76,48.78s.08,3.35-.51,3.89a2.46,2.46,0,0,1-2.64.74c.37-2.76.67-5.74.76-8.15.43-.85.75-1.41.75-1.41.82,0,.82-1.64,1.64-.82S149.59,47.14,148.76,48.78Z"/><path class="cls-1" d="M146.4,43.85q0,.66,0,1.41c-.09,2.41-.39,5.39-.76,8.15-.4,3-.88,5.73-1.27,7.29a6.75,6.75,0,0,1-1.57,2.8,11.37,11.37,0,0,1-5.41,3.36A32.17,32.17,0,0,1,126.68,66c-2.47-.82-4.11-3.29-5.75-5.75-.7-1.06-1.11-3.9-1.33-6.81-.32-3.92-.32-8-.32-8v-.09l.81-13.06s6.58-4.11,11.51-4.93,9.54.4,11.5,1.64C147.63,31.94,145.58,39.75,146.4,43.85Z"/><path class="cls-2" d="M149.68,41.39c.82-2.47,0-7.4-.82-9.86s-3.29-4.11-4.93-5.75-5.75-4.93-9-4.93-3.29-.82-5.75,0-8.22,4.93-9.86,7.39a28.18,28.18,0,0,0-2.47,4.93c-.82,1.65,0,10.68,0,10.68l2.51,4.41s0-8.51.78-11c0-2.46-1.06-4.71,1.94-6.05a53.48,53.48,0,0,1,14.49-3c3.29,0,4.93,0,6.58.82s3.28,8.22,2.46,10.69a38.43,38.43,0,0,1,.56,8.51A68.19,68.19,0,0,0,149.68,41.39Z"/><path class="cls-3" d="M113,56.52s-.13-.11-.4-.3"/><path class="cls-4" d="M108.36,53.5c-9-5.21-30.6-15-61.71-11"/><path class="cls-3" d="M44.15,42.89l-.49.07"/><path class="cls-3" d="M80.44,12.55h-.25"/><path class="cls-5" d="M74.14,13C67,14,55.36,16.61,46.88,24.21"/><path class="cls-3" d="M44.71,26.35l-.17.18"/><rect class="cls-2" x="0.09" y="75.07" width="59.33" height="3.2"/><rect class="cls-2" x="72.21" y="28.62" width="29.66" height="1.6"/><rect class="cls-2" x="86.18" y="106.91" width="90.59" height="3.2"/><path class="cls-2" d="M87.38,97.69c1.2-2.4-.67-1.87,0-4.8a19.69,19.69,0,0,1,1.06-3.72c-.26-.67-.53-6,0-7.19s3.07-1.6,3.07-1.6c4-2.26,16.24-5.3,16.24-5.3a26.13,26.13,0,0,0,9.58-6,4.5,4.5,0,0,1,2.66-1.6,5.21,5.21,0,0,0-.59,2.69c0,2.11,2,7,3.5,10.35.81,1.88,1.43,3.61,1.43,3.61l2,6.7-.32.56,1,3.48c0,.09.06.18.08.26.83,2.57,1.94,6.12,2.88,9.36h-44S86.18,100.08,87.38,97.69Z"/><path class="cls-2" d="M176.85,101.15a14.17,14.17,0,0,0-.66,3.32H134l2.11-6.34.55-1.74c0-.1-.12-.39-.26-.8l3.56-9.83s.61-1.94,1.38-4.09c0,0,0,0,0,0a54.68,54.68,0,0,0,2.72-9.85c.43-3-.26-4.22-1-4.69l0-.28c1.41,0,5.1,4.77,5.77,5.17s8.91,5.06,12.64,6.37,9.45,5.08,10.39,5.08,1.73.26,2.53,3.84-.94,4.42-.53,4.81.92,4.93.92,4.93S177.25,100.48,176.85,101.15Z"/><path class="cls-2" d="M131.11,86.17a6.66,6.66,0,0,1,.84,1.3,70.86,70.86,0,0,1,3.46,8.92L135,97.81l-1.88,5.66H130.6c-1.08-3.67-2.2-7.21-2.67-8.64a1.6,1.6,0,0,0-.08-.26L127,91.49a30.16,30.16,0,0,0,2.27-4.65c.08-.3.16-.61,1.52-.66h.36m.18-1h-.59c-1.3,0-2.15.33-2.44,1.4a36.23,36.23,0,0,1-2.38,4.79l1,3.48c0,.09.06.18.08.26.83,2.57,1.94,6.12,2.88,9.36h4l2.11-6.34.55-1.74A73.94,73.94,0,0,0,132.83,87c-.58-1.09-1.12-1.83-1.54-1.83Z"/><path class="cls-2" d="M133.11,79.36l.34.07a5.21,5.21,0,0,1,1.75,1.46c.33.37.68.8,1,1.28a32.65,32.65,0,0,1-3.17,3.26c-.54-.78-1.09-1.26-1.79-1.26h-.62a4.54,4.54,0,0,0-2.13.49c-.33-.61-.81-1.42-1.51-2.51.25-.28.53-.58.83-.87,1.8-1.79,2.66-1.93,2.88-1.93h2.38m.08-1h-2.46c-1,0-2.39,1-3.59,2.22-.49.49-1,1-1.37,1.48,1,1.51,2.49,4,2.49,4.52.29-1.07,1.14-1.35,2.44-1.4h.59c.42,0,1,.74,1.54,1.83a36.61,36.61,0,0,0,4.66-4.81,21.69,21.69,0,0,0-1.55-2,6.07,6.07,0,0,0-2.23-1.76l-.4-.08a.25.25,0,0,0-.12,0Z"/><path class="cls-1" d="M130.73,78.36c-1,0-2.39,1-3.59,2.22-.49.49-1,1-1.37,1.48-1,1.12-1.62,2-1.62,2s-.62-1.73-1.43-3.61c-1.45-3.39-3.5-8.24-3.5-10.35s.7-3.24,1.65-3.74V68.5C120.87,70.15,130.73,78.36,130.73,78.36Z"/><path class="cls-1" d="M143.87,71.79a54.68,54.68,0,0,1-2.72,9.85s0,0,0,0c-.77,2.15-1.38,4.09-1.38,4.09s-1-1.76-2.27-3.57a21.69,21.69,0,0,0-1.55-2,6.07,6.07,0,0,0-2.23-1.76,1.19,1.19,0,0,0-.4-.08.25.25,0,0,0-.12,0s10.68-5.75,9.86-9.86c-.09-.46-.16-.93-.21-1.4C143.61,67.57,144.3,68.78,143.87,71.79Z"/><path class="cls-1" d="M133.19,78.36h-2.46s-9.86-8.21-9.86-9.86V60.29c1.64,2.46,3.28,4.93,5.75,5.75a32.17,32.17,0,0,0,10.68.82,11.37,11.37,0,0,0,5.41-3.36,25,25,0,0,0,.1,3.32l0,.28c0,.47.12.94.21,1.4C143.87,72.61,133.19,78.36,133.19,78.36Z"/><path class="cls-6" d="M22,39.49A1.59,1.59,0,0,1,20.49,39c-.39-.36-.34-2.55-.34-2.55-.53-1.08-.53-3.23,0-3.77s.54.54,1.08.54c0,0,.23.41.54,1v.06S21.77,36.92,22,39.49Z"/><path class="cls-6" d="M41.08,36.41s.05,2.19-.33,2.55a1.63,1.63,0,0,1-1.73.48c.24-1.81.44-3.76.49-5.34.29-.55.5-.92.5-.92.53,0,.53-1.08,1.07-.54S41.62,35.33,41.08,36.41Z"/><path class="cls-6" d="M39.53,33.18c0,.29,0,.6,0,.92,0,1.58-.25,3.53-.49,5.34s-.58,3.76-.84,4.78a4.44,4.44,0,0,1-1,1.83,7.38,7.38,0,0,1-3.55,2.2,21.25,21.25,0,0,1-7-.53C25,47.18,23.92,45.56,22.85,44A12.29,12.29,0,0,1,22,39.49c-.21-2.57-.21-5.23-.21-5.23V34.2l.53-8.55s4.31-2.7,7.54-3.23a12,12,0,0,1,7.54,1.07C40.34,25.38,39,30.49,39.53,33.18Z"/><path class="cls-2" d="M41.68,31.57c.54-1.62,0-4.85-.53-6.46S39,22.42,37.92,21.34,34.15,18.11,32,18.11s-2.16-.54-3.77,0A18.62,18.62,0,0,0,21.77,23a18.05,18.05,0,0,0-1.62,3.23c-.53,1.08,0,7,0,7l1.65,2.89s0-5.58.51-7.19c0-1.62-.7-3.09,1.27-4a34.94,34.94,0,0,1,9.49-2c2.16,0,3.23,0,4.31.54s2.15,5.39,1.61,7a25.13,25.13,0,0,1,.37,5.58A44.88,44.88,0,0,0,41.68,31.57Z"/><path class="cls-2" d="M.87,68.45c.79-1.57-.44-1.22,0-3.14a12.31,12.31,0,0,1,.7-2.44,14.28,14.28,0,0,1,0-4.71c.35-.79,2-1,2-1,2.61-1.48,10.64-3.47,10.64-3.47a17.1,17.1,0,0,0,6.27-3.94,2.93,2.93,0,0,1,1.75-1.05,3.3,3.3,0,0,0-.39,1.76c0,1.38,1.34,4.56,2.29,6.78.53,1.23.94,2.37.94,2.37l1.34,4.38c-.09.17-.16.29-.21.37l.66,2.28.06.17c.54,1.69,1.27,4,1.88,6.13H0A13.67,13.67,0,0,1,.87,68.45Z"/><path class="cls-2" d="M59.49,70.72a8.92,8.92,0,0,0-.44,2.17H31.4l1.38-4.15.36-1.14c0-.07-.08-.26-.17-.52l2.34-6.44s.39-1.27.9-2.68v0A36.17,36.17,0,0,0,38,51.48c.28-2-.17-2.76-.68-3.07a1.1,1.1,0,0,0,0-.18c.93,0,3.34,3.12,3.78,3.38a74.52,74.52,0,0,0,8.28,4.18c2.45.86,6.2,3.33,6.81,3.33s1.13.17,1.66,2.51-.62,2.9-.35,3.15a17.39,17.39,0,0,1,.6,3.23S59.75,70.28,59.49,70.72Z"/><path class="cls-2" d="M29.52,60.9a4.69,4.69,0,0,1,.55.85,46.09,46.09,0,0,1,2.27,5.85l-.3.93-1.23,3.71H29.19c-.71-2.42-1.46-4.75-1.75-5.64,0-.07,0-.14-.05-.19l-.59-2a19.54,19.54,0,0,0,1.49-3c.05-.19.1-.4,1-.43h.23m.12-.65h-.39c-.85,0-1.41.21-1.6.91a23,23,0,0,1-1.56,3.14l.67,2.28a1.54,1.54,0,0,1,0,.17c.54,1.69,1.27,4,1.89,6.13h2.58l1.39-4.15L33,67.6a48.49,48.49,0,0,0-2.38-6.15c-.38-.72-.74-1.2-1-1.2Z"/><path class="cls-2" d="M30.83,56.44l.22.05a3.36,3.36,0,0,1,1.15,1,9.13,9.13,0,0,1,.68.84,21.87,21.87,0,0,1-2.08,2.13c-.35-.51-.71-.83-1.17-.83h-.4a3,3,0,0,0-1.4.32c-.22-.4-.53-.93-1-1.64.16-.18.35-.38.54-.57,1.18-1.18,1.75-1.27,1.89-1.27h1.56m.05-.65H29.27a4.2,4.2,0,0,0-2.35,1.45c-.32.32-.62.66-.9,1a14.34,14.34,0,0,1,1.63,3c.19-.7.75-.88,1.6-.91h.39c.27,0,.63.48,1,1.2A24.38,24.38,0,0,0,33.7,58.3a11.81,11.81,0,0,0-1-1.29,3.84,3.84,0,0,0-1.46-1.16L31,55.8Z"/><path class="cls-6" d="M29.27,55.79a4.2,4.2,0,0,0-2.35,1.45c-.32.32-.62.66-.9,1C25.4,59,25,59.56,25,59.56s-.41-1.14-.94-2.37c-.95-2.22-2.29-5.4-2.29-6.78s.46-2.12,1.08-2.45v1.37C22.81,50.41,29.27,55.79,29.27,55.79Z"/><path class="cls-6" d="M37.88,51.48a36.17,36.17,0,0,1-1.78,6.46v0c-.5,1.41-.9,2.68-.9,2.68A26.1,26.1,0,0,0,33.7,58.3a11.81,11.81,0,0,0-1-1.29,3.84,3.84,0,0,0-1.46-1.16A.8.8,0,0,0,31,55.8h-.08s7-3.77,6.46-6.46a9.26,9.26,0,0,1-.13-.92C37.71,48.72,38.16,49.51,37.88,51.48Z"/><path class="cls-6" d="M30.88,55.79H29.27s-6.46-5.38-6.46-6.46V44c1.08,1.61,2.15,3.23,3.77,3.77a21.23,21.23,0,0,0,7,.53,7.36,7.36,0,0,0,3.54-2.2,14.74,14.74,0,0,0,.07,2.18,1.1,1.1,0,0,0,0,.18,9.26,9.26,0,0,0,.13.92C37.88,52,30.88,55.79,30.88,55.79Z"/><path class="cls-7" d="M83.2,10.67a.79.79,0,0,1-.73-.26c-.19-.18-.16-1.26-.16-1.26a2.21,2.21,0,0,1,0-1.86c.26-.27.26.26.53.26l.26.51v0S83.1,9.4,83.2,10.67Z"/><path class="cls-7" d="M92.63,9.15s0,1.08-.16,1.26a.82.82,0,0,1-.86.23c.12-.89.22-1.85.25-2.63l.24-.46c.27,0,.27-.53.53-.26A2.21,2.21,0,0,1,92.63,9.15Z"/><path class="cls-7" d="M91.87,7.55c0,.15,0,.3,0,.46,0,.78-.13,1.74-.25,2.63A23.29,23.29,0,0,1,91.2,13a2.27,2.27,0,0,1-.5.91A3.7,3.7,0,0,1,89,15a10.37,10.37,0,0,1-3.46-.26,4.33,4.33,0,0,1-1.86-1.86,6.45,6.45,0,0,1-.43-2.2c-.1-1.27-.1-2.58-.1-2.58v0l.27-4.22a13.1,13.1,0,0,1,3.72-1.6,6,6,0,0,1,3.72.53C92.27,3.7,91.6,6.23,91.87,7.55Z"/><path class="cls-2" d="M92.93,6.76a6.56,6.56,0,0,0-.26-3.19c-.27-.8-1.07-1.33-1.6-1.86A5.25,5.25,0,0,0,88.15.12c-1.06,0-1.06-.27-1.86,0A9,9,0,0,0,83.1,2.51a8.46,8.46,0,0,0-.79,1.59,14.64,14.64,0,0,0,0,3.46L83.12,9a19.26,19.26,0,0,1,.25-3.55c0-.8-.34-1.52.62-2a17.47,17.47,0,0,1,4.69-1,4.71,4.71,0,0,1,2.13.26c.53.27,1.06,2.66.79,3.46A12.06,12.06,0,0,1,91.78,9,22.74,22.74,0,0,0,92.93,6.76Z"/><path class="cls-2" d="M72.79,25c.39-.78-.22-.6,0-1.55a6,6,0,0,1,.34-1.2,7.26,7.26,0,0,1,0-2.33c.18-.39,1-.52,1-.52a33.21,33.21,0,0,1,5.25-1.71,8.43,8.43,0,0,0,3.09-1.95,1.48,1.48,0,0,1,.86-.51,1.68,1.68,0,0,0-.19.87,13.09,13.09,0,0,0,1.13,3.34c.27.61.47,1.17.47,1.17l.66,2.17a2,2,0,0,0-.1.18L85.62,24l0,.09c.27.83.62,2,.93,3H72.36A6.58,6.58,0,0,1,72.79,25Z"/><path class="cls-2" d="M101.72,26.08a4.58,4.58,0,0,0-.22,1.07H87.86l.68-2,.18-.56s0-.13-.09-.26l1.15-3.18s.2-.62.45-1.32h0a17.25,17.25,0,0,0,.88-3.18c.14-1-.08-1.37-.33-1.52V15c.45,0,1.65,1.54,1.86,1.67a36.52,36.52,0,0,0,4.09,2.06c1.21.43,3.06,1.64,3.36,1.64s.56.09.82,1.24-.31,1.43-.17,1.56a8.31,8.31,0,0,1,.29,1.59S101.84,25.86,101.72,26.08Z"/><path class="cls-2" d="M86.93,21.24a2,2,0,0,1,.27.42,23.18,23.18,0,0,1,1.12,2.88l-.15.46-.61,1.83h-.8c-.35-1.19-.71-2.34-.86-2.79l0-.09-.28-1a9.42,9.42,0,0,0,.73-1.51c0-.09.05-.19.49-.21h.12m.06-.33H86.8c-.42,0-.7.1-.79.45a14,14,0,0,1-.77,1.55L85.56,24l0,.09c.27.83.63,2,.93,3H87.8l.68-2,.18-.56a24.35,24.35,0,0,0-1.18-3c-.18-.35-.36-.59-.49-.59Z"/><path class="cls-2" d="M87.58,19l.08,0h0a1.74,1.74,0,0,1,.58.48c.11.12.22.26.34.41a10.73,10.73,0,0,1-1,1.06.72.72,0,0,0-.58-.41h-.2a1.57,1.57,0,0,0-.69.16c-.1-.2-.26-.46-.48-.81l.26-.28c.59-.58.86-.63.94-.63h.77m0-.32h-.79a2.08,2.08,0,0,0-1.17.72l-.44.48A6.94,6.94,0,0,1,86,21.37c.09-.35.37-.44.79-.45H87c.13,0,.31.24.49.59A11.82,11.82,0,0,0,89,20a7.84,7.84,0,0,0-.5-.64,2.15,2.15,0,0,0-.72-.57l-.13,0Z"/><path class="cls-7" d="M86.81,18.71a2.08,2.08,0,0,0-1.17.72l-.44.48c-.31.36-.52.66-.52.66s-.2-.56-.46-1.17a13.18,13.18,0,0,1-1.14-3.34c0-.7.23-1,.54-1.21v.67C83.62,16.06,86.81,18.71,86.81,18.71Z"/><path class="cls-7" d="M91.05,16.59a17.25,17.25,0,0,1-.88,3.18h0c-.25.7-.45,1.32-.45,1.32A12,12,0,0,0,89,20a7.84,7.84,0,0,0-.5-.64,2.15,2.15,0,0,0-.72-.57l-.13,0h0s3.45-1.86,3.19-3.19c0-.15-.05-.3-.07-.45C91,15.22,91.19,15.61,91.05,16.59Z"/><path class="cls-7" d="M87.6,18.71h-.79s-3.19-2.65-3.19-3.19V12.87a4.22,4.22,0,0,0,1.86,1.86,10.3,10.3,0,0,0,3.45.26,3.65,3.65,0,0,0,1.75-1.08,7.82,7.82,0,0,0,0,1.07v.09c0,.15,0,.3.07.45C91.05,16.85,87.6,18.71,87.6,18.71Z"/><line class="cls-8" x1="139.76" y1="85.76" x2="135.91" y2="96.39"/><line class="cls-1" x1="124.15" y1="84.11" x2="126.4" y2="91.46"/></g></svg>