<svg xmlns="http://www.w3.org/2000/svg" viewBox="0 0 116.82 95.66"><defs><style>.cls-1,.cls-2{fill:none;}.cls-1,.cls-2,.cls-4{stroke:#fff;stroke-width:2px;}.cls-1{stroke-linecap:round;stroke-linejoin:round;}.cls-2,.cls-4{stroke-miterlimit:10;}.cls-3,.cls-4{fill:#fff;}</style></defs><title>Gi Belt Fill</title><g id="DASHBOARD_V1"><line class="cls-1" x1="3.54" y1="78.48" x2="23.98" y2="86.16"/><line class="cls-1" x1="93.55" y1="86.16" x2="113.71" y2="78.48"/><path class="cls-2" d="M74.53,9.56s-19.51,40-35,54.33"/><path class="cls-1" d="M42.26,9.87S49.53,31.36,54.82,31.6"/><path class="cls-2" d="M116.07,84.94l-20.3,7.71S87.16,66.91,83,58.66a13,13,0,0,1-5.19,6.88L78,70.62A32.08,32.08,0,0,0,81.14,76c2,2.83,1.41,9.92,2.35,15.26C81,95,69,94,58.63,94.07s-21.6.67-25-2.68c.9-6,1.57-12.9,2.36-15.89a9.55,9.55,0,0,1,3.78-4.88s.15-3.62.31-6.29c-2-.16-5.72-7.77-6.45-5.67s-12,34.15-12,34.15L1.19,85.1s21.4-60.59,24.55-64.53,14.63-9.91,16.52-10.7,2.21-7.24,3.94-8.34A2.54,2.54,0,0,1,47,1.29C51,.5,67,.52,70.46,1.32a1.6,1.6,0,0,1,.6.21c1.42,1.1,1.53,6.75,3.47,8S89.16,16.8,91.68,20.89,116.07,84.94,116.07,84.94Z"/><path class="cls-2" d="M70.46,1.88C67.17,9.69,58.25,25.26,58.25,25.26,53.45,22.2,49,8.63,47,1.85,51,1.09,67,1.1,70.46,1.88Z"/><path class="cls-3" d="M52.2,70.52a.78.78,0,0,0,0,.26H39.53a.37.37,0,0,1-.38-.35V65a.37.37,0,0,1,.38-.35H52.2a.86.86,0,0,0,0,.16v5.67A.25.25,0,0,0,52.2,70.52Z"/><path class="cls-3" d="M78.77,65v5.47a.37.37,0,0,1-.38.35H65.66a2,2,0,0,0,0-.34V64.77a.86.86,0,0,0,0-.16H78.39A.37.37,0,0,1,78.77,65Z"/><rect class="cls-3" x="53.12" y="62.7" width="11.65" height="9.8" rx="2.57" ry="2.57"/><path class="cls-3" d="M74.58,88.72l-3.17,2a1.53,1.53,0,0,1-2.1-.5L59,73.36h3.6a3.13,3.13,0,0,0,3-2.22l9.52,15.49A1.52,1.52,0,0,1,74.58,88.72Z"/><path class="cls-3" d="M55.3,73.36h3L50.23,86.47a1.45,1.45,0,0,1-2,.48l-3.31-2a1.44,1.44,0,0,1-.48-2L52,70.62l.18-.28a.88.88,0,0,0,0,.28A3.1,3.1,0,0,0,55.3,73.36Z"/><path class="cls-2" d="M25.74,20.57l9.19,38.35,1.29,1.56s29.44-43,34.24-59.16"/><path class="cls-2" d="M47,1.29s5.41,20.89,11.23,24.35"/><line class="cls-4" x1="91.68" y1="20.89" x2="83.02" y2="58.66"/></g></svg>