<svg xmlns="http://www.w3.org/2000/svg" viewBox="0 0 147 147"><defs><style>.cls-1,.cls-3,.cls-4{fill:none;stroke:#000;stroke-miterlimit:10;}.cls-1{stroke-width:3px;}.cls-2{fill:#000;}.cls-3{stroke-width:2px;}</style></defs><title>Compass</title><g id="DASHBOARD_V1"><circle class="cls-1" cx="73.5" cy="73.5" r="72"/><path class="cls-2" d="M110.58,36.67,63.49,63.24,36.92,110.33,84,83.76ZM68.32,78.93a7.68,7.68,0,1,1,10.86,0A7.68,7.68,0,0,1,68.32,78.93Z"/><circle class="cls-3" cx="73.5" cy="73.5" r="66"/><circle class="cls-2" cx="74" cy="16" r="3"/><circle class="cls-2" cx="74" cy="131" r="3"/><circle class="cls-2" cx="131.5" cy="73.5" r="3"/><circle class="cls-2" cx="16.5" cy="73.5" r="3"/><line class="cls-3" x1="32" y1="32" x2="39.5" y2="39.5"/><line class="cls-3" x1="115" y1="115" x2="107.5" y2="107.5"/><path class="cls-4" d="M117.38,29.87,61.6,61.35,30.12,117.13,85.9,85.65ZM67.32,79.93a9.09,9.09,0,1,1,12.86,0A9.1,9.1,0,0,1,67.32,79.93Z"/></g></svg>
