<svg xmlns="http://www.w3.org/2000/svg" viewBox="0 0 172.47 149.92"><defs><style>.cls-1{fill:#fff;}</style></defs><title>Bowing</title><g id="DASHBOARD_V1"><path class="cls-1" d="M35.12,69.26,37.64,66s3.74.92,4.66,0a1.79,1.79,0,0,0,.55-1.87,7.63,7.63,0,0,1,1.28-1c.52-.27-.15-.72-.15-.72s.7-.29.46-.59a5.74,5.74,0,0,1-.52-1.21s1.14-.06,1.14-1-1.74-1.68-1.74-2.4.87-1.14.84-1.85l-.06-1.32h1a2.82,2.82,0,0,0-.36-2.87c-1.12-1.11-2.82-5.27-10.47-5.27s-9.76,5.45-9.76,5.45-1.16,5.77.42,7.36a4.26,4.26,0,0,1,1.32,3.41s.18,2.57-1.08,3.53-3.65.6-5.62,2.15-2.92,4.77-4,5.27-3.81,2.55-4.51,4a40.09,40.09,0,0,0-2,4.14c-.24.86,0,3-1.2,4.42S4.61,87.33,3,89.24s-3,8.62-3,9.52,1.62,1,2.69,1.73.19,9.81.42,12,2,21.12,2.51,23.75-.71,8.44.24,9.94,6,.52,7.18,1.07a47.79,47.79,0,0,0,5,2.4c1.38.41,6.88.41,7.6-1s-1.14-2-1.14-2h2s2.09.12,2.21-1-2.15-1.62-2.15-1.62a8.46,8.46,0,0,1-2.64-.36c-1.28-.42-2.81-3.11-2.81-3.11s1-.36,1-1.14-2.93-3.11-3.23-4.78.94-4.32.9-5.27a23.31,23.31,0,0,1-.24-4.84c.24-1.8,4.12-7.37,4.24-9.28l.54-8c-.34-4,.82-6.51,1.44-9.57a32.35,32.35,0,0,1,.6-4.85c.42-1.49,3.23-3.11,4.54-4.6s3.42-6.89,3.83-8.8S35.12,69.26,35.12,69.26Z"/><path class="cls-1" d="M165.64,72.94c-.28-.69-7.14-9-8.14-9.49s-6.78-3.3-7.42-3.79-.62-1.53-1.06-2.12-1.45.44-1.45.44l-.89-1.56a7.42,7.42,0,0,1,1-1.62c.81-1.06.46-7.51.28-9s-.89-1.84-1.62-3.18-4.85-3.79-6.25-3.79a13.49,13.49,0,0,0-4.29.78c-1.51.5-3.68,3-5.08,4.18a4.44,4.44,0,0,0-1.73,3.3c0,.83.84.78,1.17,1.33s.17,2.4.34,3.13.78.33,1.11.89-1,2.11-.73,2.9,1.76.6,1.76.6a13.79,13.79,0,0,1-.08,1.63c-.09.34.79.34.79.34a.8.8,0,0,0,.07.84c.32.33.67,1.21,1.32,1.69a2.91,2.91,0,0,0,2.34.09c.5-.18,1.06-.82,1.51-.84a2.7,2.7,0,0,1,1.45.62,5,5,0,0,1-.11,1.89,24.74,24.74,0,0,0-.84,3.52,31.82,31.82,0,0,1,0,3.79,12.52,12.52,0,0,0,.22,4.74,12.58,12.58,0,0,0,2.4,3.74c.56.61.56,3,1.17,3.68s1.83,1.39,2.18,2-.28,1.7-.11,2.17.58.27,1,1-.69,8.74-.34,9.31,1.64.63,1.76,1,3.71,10.5,4,11.16-.38,6.63-.45,7.86-1.32,2.37-1.39,2.85.18.64.33,1.12-2.4,19-2.48,19.52a4.47,4.47,0,0,1-1.31,1.9,67.71,67.71,0,0,1-7.65,2.67c-1.33.35-2.35.42-3,.62s-1.16.22-1.12.89,2,2.29,2.4,2.62a24.81,24.81,0,0,0,4,1.06,7.26,7.26,0,0,0,2.23.56c1,0,5.11-.72,6.47-.84s3.32.85,4.3.23.07-2.83.06-3.41.09-2.8.61-2.9,3.54,1.47,4.52,1.51,3.33-.06,4.24-1,3.94-17.56,4.07-19.2,1.65-22.78,1.95-23.87,1,.32,1.68.17,1.85-3.44,1.67-4-2.65-1.07-3-2.57.47-3.35.17-4.74.38-5-1.39-6.41-4.47-3.14-4.8-4,.08-1.18.39-1.61a18.41,18.41,0,0,0,1.84-2.57C166.17,73.76,165.93,73.62,165.64,72.94Z"/><path class="cls-1" d="M95.32,16.68a6.1,6.1,0,0,0,1.49-2,18.63,18.63,0,0,0,.69-3.71c-.09-.94-1.21-.66-1.21-.66a53.59,53.59,0,0,0-.17-6A5.12,5.12,0,0,0,92.44.63,10.23,10.23,0,0,0,87.15.18,8.54,8.54,0,0,0,82.43,2.4a6.08,6.08,0,0,0-1.78,3.83c0,1,.07,2.19.08,2.88s-.77-.53-1.08.73-.28,3.1.1,3.58,1.47,1.23,1.55,1.95.11,1.46-.65,1.81-5,2.3-5.7,2.65a17.25,17.25,0,0,0-5.24,3.39,26.9,26.9,0,0,0-4.9,8.13c-.4,1.52-2.14,5.49-2.08,7.83s1.73,5.22,1.29,7-1.46,7.36-.86,8.58-.27,10.77.32,11.64,2.46.23,2.71.83-1.84,5.92-1.5,6.91,2.13.36,2.52,1.12S65,89.75,65.12,93.47s1.46,5,1,7,2,4.83,1.88,7.12-.7,8.11-.67,11.86,2.52,6.78,2.25,9.2-1,2.42-.9,3.61,1.81,4.27,1.39,4.59-1.14,2.65-1,4.75a6.73,6.73,0,0,0,2,4.1c.42.45-.8,1-1.15,1.95s.64,1.83,1.25,2.06,1.41-.28,2.19-.06a10.37,10.37,0,0,0,2.78-.08,1.42,1.42,0,0,0,1.45-.72c.39-.7.14-3.78,1.23-3.53a20.51,20.51,0,0,0,2.7.62c.94.09,2.52-1,3.76-.7a4.58,4.58,0,0,1,2.15,1.93s-.53.59.26,1.31,2.77,1,4,1.27,3.79-.6,3.9-1.48-.55-1.89-.23-2.71.44-.56,1.06-1.12,1.46-2.35,1-3-.82-2-1.76-2.63-3.36-.71-3.55-2.4,2.1-10.18,2.39-11,3.31-9.82,3.78-11.06-.43-1.48-.27-2.58,1.73-2.44,2.16-4.44.3-7.27.64-9.47,2.32-13.55,2.29-14.67L103,81c0-1.17-.38-.15,0-1.89s-.85-2.69-1-4,.61.17.86-1.12-1.34-3.12-1.12-4.55.93-3.4,2.8-3.26,5.24.87,6.55-.88-.48-11.25-.35-12.54.93-6.31.87-8.28-.69-1.63-1-4.65,0-8.37-1.06-9.73-4.2-7-6.29-7.89S97.42,18.8,96,18.42,95.32,16.68,95.32,16.68Z"/></g></svg>