<svg id="Layer_1" data-name="Layer 1" xmlns="http://www.w3.org/2000/svg" viewBox="0 0 238.98 343.47"><defs><style>.cls-1{fill:#bfccd6;}.cls-2{fill:#f3f3f3;}.cls-3{fill:#d0d2d3;}.cls-4{fill:#929497;}.cls-5{fill:#b4b4b4;}</style></defs><title>B_Tap</title><polygon class="cls-1" points="42.01 259.18 42.01 343.48 -0.01 343.48 -0.01 272.95 42.01 259.18"/><polygon class="cls-1" points="91.68 278.8 91.68 343.48 49.66 343.48 49.67 287.86 91.68 278.8"/><polygon class="cls-1" points="197.79 303.18 197.79 343.48 239.81 343.48 239.81 309.76 197.79 303.18"/><polygon class="cls-1" points="146.99 242.14 147 343.48 189.01 343.48 189.01 256.35 146.99 242.14"/><rect class="cls-1" x="102.73" y="310.89" width="32.51" height="32.59"/><polygon class="cls-2" points="124 53.87 154.25 73.7 90.43 165.05 78.64 132.46 23.01 209.71 55.56 139.25 86.71 73.7 124 53.87"/><polygon class="cls-1" points="150.36 61.42 126.63 45.11 92.52 61.42 120.85 1.4 150.36 61.42"/><polygon class="cls-3" points="102.56 225.37 102.56 225.4 -0.02 259.67 102.56 225.37"/><polygon class="cls-3" points="147.07 229.19 136.87 225.84 136.87 225.37 216.51 251.99 188.16 242.69 147.07 229.19"/><polygon class="cls-4" points="239.82 259.67 218.11 252.52 216.51 251.99 188.16 242.69 147.07 229.19 136.87 225.84 135.32 225.33 102.77 225.33 102.56 225.4 -0.02 259.67 76.33 148.95 88.36 182.85 157.69 81.17 239.82 259.67"/><polygon class="cls-5" points="239.8 260.24 135.39 225.76 135.39 298.46 102.83 298.46 102.83 225.9 102.88 225.88 102.83 225.74 102.83 225.9 0.05 260.24 0.88 259.04 0 259.34 76.36 148.62 88.38 182.52 99.09 166.82 157.5 81.17 239.31 259.16 239.8 260.24"/><polygon class="cls-1" points="239.8 260.24 135.39 225.76 135.39 298.46 102.83 298.46 102.83 225.9 102.88 225.88 102.83 225.74 102.83 225.9 0.05 260.24 0.88 259.04 0 259.34 76.36 148.62 88.38 182.52 99.09 166.82 157.5 81.17 239.31 259.16 239.8 260.24"/><polygon class="cls-1" points="124 53.87 154.25 73.7 90.43 165.05 78.64 132.46 23.01 209.71 55.56 139.25 86.71 73.7 124 53.87"/></svg>
