<svg id="Layer_1" data-name="Layer 1" xmlns="http://www.w3.org/2000/svg" viewBox="0 0 239.82 350.66"><defs><style>.cls-1{fill:#010101;}.cls-2{fill:#afd13f;}.cls-3{fill:#f3f3f3;}.cls-4{fill:#d0d2d3;}.cls-5{fill:#929497;}.cls-6{fill:#b4b4b4;}</style></defs><title>W_Tap</title><rect class="cls-1" width="239.85" height="350.59"/><polygon class="cls-2" points="121.59 349.19 121.56 349.26 121.56 349.22 121.59 349.19"/><polygon class="cls-3" points="42.03 259.18 42.03 343.48 0.01 343.48 0.01 272.95 42.03 259.18"/><polygon class="cls-3" points="91.71 278.8 91.7 343.48 49.68 343.48 49.69 287.86 91.71 278.8"/><polygon class="cls-3" points="197.82 303.18 197.82 343.48 239.84 343.48 239.84 309.76 197.82 303.18"/><polygon class="cls-3" points="147.01 242.14 147.02 343.48 189.04 343.48 189.03 256.35 147.01 242.14"/><rect class="cls-3" x="102.76" y="310.89" width="32.51" height="32.59"/><polygon class="cls-3" points="124.03 53.87 154.28 73.7 90.45 165.05 78.67 132.46 23.03 209.71 55.59 139.25 86.74 73.7 124.03 53.87"/><polygon class="cls-3" points="150.38 61.42 126.66 45.11 92.54 61.42 120.87 1.4 150.38 61.42"/><polygon class="cls-4" points="102.58 225.37 102.58 225.4 0 259.67 102.58 225.37"/><polygon class="cls-4" points="147.09 229.19 136.9 225.84 136.9 225.37 216.54 251.99 188.19 242.69 147.09 229.19"/><polygon class="cls-5" points="239.85 259.67 218.13 252.52 216.54 251.99 188.19 242.69 147.09 229.19 136.9 225.84 135.35 225.33 102.79 225.33 102.58 225.4 0 259.67 76.36 148.95 88.38 182.85 157.71 81.17 239.85 259.67"/><polygon class="cls-6" points="239.82 260.24 135.42 225.76 135.42 298.46 102.86 298.46 102.86 225.9 102.9 225.88 102.86 225.74 102.86 225.9 0.07 260.24 0.9 259.04 0.02 259.34 76.38 148.62 88.41 182.52 99.11 166.82 157.52 81.17 239.34 259.16 239.82 260.24"/><polygon class="cls-3" points="239.82 260.24 135.42 225.76 135.42 298.46 102.86 298.46 102.86 225.9 102.9 225.88 102.86 225.74 102.86 225.9 0.07 260.24 0.9 259.04 0.02 259.34 76.38 148.62 88.41 182.52 99.11 166.82 157.52 81.17 239.34 259.16 239.82 260.24"/><polygon class="cls-3" points="124.03 53.87 154.28 73.7 90.45 165.05 78.67 132.46 23.03 209.71 55.59 139.25 86.74 73.7 124.03 53.87"/></svg>