<svg id="Layer_1" data-name="Layer 1" xmlns="http://www.w3.org/2000/svg" viewBox="0 0 238.98 343.47"><defs><style>.cls-1{fill:#f8981d;}.cls-2{fill:#f3f3f3;}.cls-3{fill:#d0d2d3;}.cls-4{fill:#929497;}.cls-5{fill:#b4b4b4;}</style></defs><title>C_Tap</title><polygon class="cls-1" points="41.92 259.18 41.92 343.48 -0.1 343.48 -0.1 272.95 41.92 259.18"/><polygon class="cls-1" points="91.59 278.8 91.59 343.48 49.57 343.48 49.58 287.86 91.59 278.8"/><polygon class="cls-1" points="197.71 303.18 197.71 343.48 239.72 343.48 239.72 309.76 197.71 303.18"/><polygon class="cls-1" points="146.9 242.14 146.91 343.48 188.92 343.48 188.92 256.35 146.9 242.14"/><rect class="cls-1" x="102.64" y="310.89" width="32.51" height="32.59"/><polygon class="cls-2" points="123.92 53.87 154.16 73.7 90.34 165.05 78.55 132.46 22.92 209.71 55.48 139.25 86.62 73.7 123.92 53.87"/><polygon class="cls-1" points="150.27 61.42 126.54 45.11 92.43 61.42 120.76 1.4 150.27 61.42"/><polygon class="cls-3" points="102.47 225.37 102.47 225.4 -0.11 259.67 102.47 225.37"/><polygon class="cls-3" points="146.98 229.19 136.78 225.84 136.78 225.37 216.42 251.99 188.07 242.69 146.98 229.19"/><polygon class="cls-4" points="239.73 259.67 218.02 252.52 216.42 251.99 188.07 242.69 146.98 229.19 136.78 225.84 135.24 225.33 102.67 225.33 102.47 225.4 -0.11 259.67 76.24 148.95 88.27 182.85 157.6 81.17 239.73 259.67"/><polygon class="cls-5" points="239.71 260.24 135.3 225.76 135.3 298.46 102.75 298.46 102.75 225.9 102.79 225.88 102.75 225.74 102.75 225.9 -0.04 260.24 0.79 259.04 -0.09 259.34 76.27 148.62 88.29 182.52 99 166.82 157.41 81.17 239.22 259.16 239.71 260.24"/></svg>